<svg xmlns="http://www.w3.org/2000/svg" width="27.2" height="25.27" viewBox="0 0 27.2 25.27">
  <path id="Path_60" data-name="Path 60" d="M15.6,2C8.093,2,2,7.66,2,14.635S8.093,27.27,15.6,27.27s13.6-5.66,13.6-12.635S23.107,2,15.6,2Zm1.36,21.479H14.24V20.952h2.72Zm2.815-9.792L18.551,14.85a4.168,4.168,0,0,0-1.591,3.576H14.24v-.632a4.91,4.91,0,0,1,1.591-3.576l1.686-1.592a2.388,2.388,0,0,0,.8-1.782A2.637,2.637,0,0,0,15.6,8.317a2.637,2.637,0,0,0-2.72,2.527H10.16A5.256,5.256,0,0,1,15.6,5.79a5.256,5.256,0,0,1,5.44,5.054A3.882,3.882,0,0,1,19.775,13.687Z" transform="translate(-2 -2)"/>
</svg>
