<svg xmlns="http://www.w3.org/2000/svg" width="28.38" height="25.27" viewBox="0 0 28.38 25.27">
  <path id="Path_59" data-name="Path 59" d="M12.781,15.9a1.266,1.266,0,1,1-1.34,1.263,1.307,1.307,0,0,1,1.34-1.263m0-2.527a3.9,3.9,0,0,0-4.02,3.79,3.9,3.9,0,0,0,4.02,3.79,3.9,3.9,0,0,0,4.02-3.79,3.9,3.9,0,0,0-4.02-3.79Zm11.39-2.527L25.631,7.8,28.86,6.422,25.631,5.045,24.17,2,22.71,5.045,19.48,6.422,22.71,7.8Zm3.725,4.7L26.85,13.371,25.8,15.545l-2.3.986,2.3.986,1.045,2.173L27.9,17.516l2.3-.986Zm-6.74,1.617c0-.152,0-.316-.013-.467l2.6-1.857-3.35-5.471-3,1.188a9.087,9.087,0,0,0-.858-.467l-.4-3.032h-6.7l-.4,3.045c-.295.139-.576.3-.858.467l-3-1.2L1.82,14.837l2.6,1.857c-.013.152-.013.316-.013.467s0,.316.013.467l-2.6,1.857,3.35,5.471,3-1.188a9.088,9.088,0,0,0,.858.467l.4,3.032h6.7l.4-3.045a8.018,8.018,0,0,0,.858-.467l3,1.188,3.35-5.471-2.6-1.857C21.155,17.478,21.155,17.313,21.155,17.162Zm-1.9,4.6-2.318-.922a5.722,5.722,0,0,1-2.854,1.554l-.322,2.35H11.8l-.308-2.35A5.722,5.722,0,0,1,8.64,20.839l-2.318.922-.978-1.6,2-1.428a5.127,5.127,0,0,1,0-3.108l-2-1.428.978-1.6,2.318.922a5.722,5.722,0,0,1,2.854-1.554L11.8,9.581h1.97l.308,2.35a5.722,5.722,0,0,1,2.854,1.554l2.318-.922.978,1.6-2,1.428a5.127,5.127,0,0,1,0,3.108l2,1.428Z" transform="translate(-1.82 -2)"/>
</svg>
