<svg id="share_black_24dp" xmlns="http://www.w3.org/2000/svg" width="31.2" height="29.202" viewBox="0 0 31.2 29.202">
  <path id="Path_10" data-name="Path 10" d="M0,0H31.2V29.2H0Z" fill="none"/>
  <path id="Path_11" data-name="Path 11" d="M24,19.808a4.324,4.324,0,0,0-2.744.974l-9.982-5.249a3.763,3.763,0,0,0,.126-.885,3.763,3.763,0,0,0-.126-.885l9.87-5.2A4.432,4.432,0,0,0,24,9.589a4.007,4.007,0,0,0,4.2-3.794A4.007,4.007,0,0,0,24,2a4.007,4.007,0,0,0-4.2,3.794,3.763,3.763,0,0,0,.126.885l-9.87,5.2A4.432,4.432,0,0,0,7.2,10.853,4.007,4.007,0,0,0,3,14.648a4.007,4.007,0,0,0,4.2,3.794,4.432,4.432,0,0,0,2.856-1.024l9.968,5.262a3.242,3.242,0,0,0-.112.822A3.91,3.91,0,0,0,24,27.195,3.91,3.91,0,0,0,28.088,23.5,3.91,3.91,0,0,0,24,19.808ZM24,4.53a1.342,1.342,0,0,1,1.4,1.265,1.407,1.407,0,0,1-2.8,0A1.342,1.342,0,0,1,24,4.53ZM7.2,15.913a1.342,1.342,0,0,1-1.4-1.265,1.342,1.342,0,0,1,1.4-1.265,1.342,1.342,0,0,1,1.4,1.265A1.342,1.342,0,0,1,7.2,15.913ZM24,24.791a1.271,1.271,0,1,1,1.4-1.265A1.342,1.342,0,0,1,24,24.791Z" transform="translate(0 -0.036)"/>
</svg>
